<svg width="1210" height="360" viewBox="0 0 1210 360" fill="none" xmlns="http://www.w3.org/2000/svg"><g clip-path="url(#clip0_128_543)"><mask id="mask0_128_543" style="mask-type:luminance" maskUnits="userSpaceOnUse" x="0" y="0" width="1210" height="360"><path d="M1209.5 0H.5v360h1209V0z" fill="#fff"/></mask><g mask="url(#mask0_128_543)"><path d="M550.457 167.769c0 29.903-4.316 54.904-26.529 81.119-21.582 25.316-48.426 37.007-83.588 37.007-73.742 0-120.01-54.589-120.01-117.541 0-62.953 48.741-114.754 118.751-114.754 43.795 0 71.853 15.423 95.639 41.324l-29.632 29.318c-18.795-19.741-39.478-30.218-65.693-30.218-44.424 0-76.484 33.95-76.484 74.959s34.848 76.488 79.272 76.488c29.317 0 48.742-12.051 60.747-37.637h-64.164v-40.11h111.646l.045.045zm249.238 2.473c0 65.112-50.899 115.384-114.434 115.384-63.534 0-115.963-51.846-115.963-116.283 0-64.437 52.429-115.968 115.379-115.968S799.74 102.748 799.74 170.287l-.045-.045zm-187.86 0c0 45.057 33.948 74.959 73.112 74.959 39.163 0 72.167-33.005 72.167-75.273 0-42.269-30.531-76.173-72.797-76.173-39.793 0-72.482 30.847-72.482 76.487z" fill="#fff"/><path d="M17.586 353.39c-8.004-4.407-13.22-10.207-15.693-17.402-2.428-7.194-1.708-14.884 2.204-23.068L68.08 177.212c4.182-8.408 10.162-15.783 17.896-22.168 7.779-6.34 16.907-11.242 27.473-14.614 10.567-3.373 21.988-5.081 34.308-5.081h76.619c11.061 0 20.414 1.978 28.058 5.98 7.599 4.002 12.545 9.398 14.838 16.143 2.248 6.79 1.484 14.164-2.383 22.168l-66.052 138.497c-3.912 8.228-9.803 15.513-17.671 21.853-7.869 6.34-17.087 11.287-27.698 14.794-10.612 3.507-21.538 5.216-32.824 5.216H47.757c-12.095 0-22.167-2.203-30.171-6.61zm62.006-31.566c3.687 4.092 9.442 6.16 17.221 6.16 7.195 0 13.939-1.754 20.369-5.216 6.385-3.507 10.972-8.184 13.804-14.164l58.139-120.33c2.923-6.34 2.518-11.466-1.214-15.379-3.732-3.912-9.532-5.845-17.311-5.845-7.194 0-13.939 1.709-20.324 5.081-6.34 3.373-10.926 7.959-13.669 13.715l-58.14 120.33c-2.967 6.34-2.562 11.601 1.125 15.693v-.045z" fill="#00AEEF"/><path d="M267.273 157.517c-2.248-6.79-7.239-12.186-14.793-16.188-5.171-2.698-11.106-4.496-17.896-5.351-3.192-.45-6.565-.629-10.162-.629h-76.574c-3.597 0-7.149.135-10.567.449-8.363.675-16.277 2.249-23.741 4.632a81.823 81.823 0 00-7.464 2.743l-13.984 29.138c-3.057 5.935-2.922 10.837.315 14.614 3.282 3.777 8.813 5.666 16.637 5.666s15.557-1.799 22.077-5.396c3.552-1.979 6.52-4.227 8.948-6.88.45-.585.899-1.124 1.439-1.619 2.383-2.563 5.306-4.766 8.768-6.61 6.385-3.372 13.13-5.081 20.324-5.081 7.824 0 13.579 1.933 17.311 5.846.81.854 1.484 1.753 1.934 2.742 16.052 11.647 35.432 38.582 29.047 100.545l46.043-96.498c3.822-8.004 4.631-15.378 2.338-22.168v.045zM78.423 306.176l39.389-81.524H56.57c-3.327 0-6.52-.225-9.532-.54C12.01 342.868 96.813 328.029 96.813 328.029c-7.823 0-13.534-2.068-17.266-6.16-3.687-4.092-4.002-9.353-1.124-15.693z" fill="url(#paint0_linear_128_543)"/><path d="M218.891 276.183l-20.01 41.954c-3.911 8.229-9.802 15.513-17.671 21.853-7.868 6.386-17.086 11.287-27.698 14.794-10.566 3.463-21.492 5.216-32.778 5.216H47.757c-12.096 0-22.168-2.203-30.171-6.61-7.96-4.406-13.22-10.207-15.648-17.402-2.428-7.149-1.754-14.883 2.203-23.112l41.952-88.944c.315 0 .674.09.99.135-35.028 118.756 49.775 103.917 49.775 103.917 7.149 0 13.938-1.753 20.368-5.261 6.34-3.462 10.972-8.228 13.759-14.164l43.975-91.012 14.164-29.273c2.293-4.991 2.518-9.218.72-12.635 16.052 11.646 35.431 38.581 29.047 100.544z" fill="url(#paint1_linear_128_543)"/><path d="M194.701 205.856c-7.239 5.935-15.693 10.567-25.405 13.849-9.712 3.283-19.919 4.947-30.576 4.947H56.57c-11.061 0-20.369-1.979-27.878-5.981s-12.41-9.398-14.658-16.143c-2.248-6.79-1.574-14.164 2.068-22.168L84.223 39.12c3.507-7.599 8.903-14.344 16.142-20.324 7.24-5.936 15.693-10.567 25.406-13.85C135.483 1.664 145.645 0 156.346 0h82.15c11.061 0 20.414 1.979 28.058 5.98 7.599 4.003 12.545 9.399 14.838 16.143 2.248 6.79 1.484 14.165-2.383 22.169l-13.13 28.329h-72.302l9.217-19.38c2.743-5.757 2.563-10.703-.584-14.93-3.148-4.182-8.409-6.295-15.783-6.295-8.228 0-15.602 1.799-22.257 5.396-6.61 3.597-11.331 8.364-14.164 14.3L92.092 172.355c-3.013 5.935-2.923 10.837.36 14.614 3.282 3.777 8.813 5.71 16.592 5.71 8.183 0 15.557-1.798 22.077-5.395 6.52-3.598 11.196-8.364 13.984-14.3l15.693-31.701c.449-1.439.225-2.653-.585-3.687-.809-1.034-2.248-1.529-4.316-1.529h-18.751l12.456-27.07h58.453c7.374 0 13.445 1.349 18.166 4.002 4.721 2.653 7.779 6.161 9.172 10.477 1.394 4.317.9 8.904-1.393 13.85l-23.202 48.294c-3.507 7.599-8.903 14.344-16.142 20.325l.045-.09z" fill="#F7941D"/><path d="M235.393 123.432c-1.348-4.316-4.406-7.824-9.172-10.477-4.766-2.653-10.792-4.002-18.166-4.002h-58.498l-12.366 26.845-.089.225h18.795c2.023 0 3.507.495 4.316 1.529.36.494.63.989.675 1.529 14.973-.315 52.788 2.473 54.361 37.232L234 137.237c.179-.45.404-.854.539-1.259 1.799-4.452 2.069-8.678.854-12.591v.045zm45.954-101.309c-2.293-6.745-7.239-12.14-14.838-16.142C258.865 2.023 249.512 0 238.451 0h-82.15c-10.656 0-20.818 1.619-30.53 4.901-9.713 3.283-18.166 7.914-25.405 13.85-7.24 5.935-12.635 12.77-16.143 20.325L48.837 112.46v.09c-5.396 36.152 4.766 56.073 18.21 66.954l1.08-2.293c4.18-8.409 10.161-15.783 17.895-22.168 5.89-4.812 12.59-8.769 20.009-11.871l43.93-91.462c21.808-44.74 65.423-43.48 97.663-39.794 25.36 2.923 32.509 15.334 34.263 23.922 1.034-4.811.854-9.353-.585-13.715h.045z" fill="url(#paint2_linear_128_543)"/><path d="M215.249 176.313l-4.451 9.218c-3.552 7.599-8.903 14.344-16.097 20.28-5.801 4.811-12.455 8.723-19.784 11.691a72.092 72.092 0 01-5.621 2.158c-9.712 3.283-19.874 4.902-30.576 4.902h-20.908l18.75-38.806a26.835 26.835 0 013.462-5.486c.495-.495.944-1.034 1.439-1.619 1.439-1.799 2.653-3.687 3.597-5.801l15.693-31.701c.225-.764.27-1.529.09-2.158 14.973-.315 52.788 2.473 54.362 37.232l.044.09z" fill="url(#paint3_linear_128_543)"/><path d="M67.001 179.506l-20.953 44.471c-6.565-.899-12.41-2.653-17.356-5.306-7.51-4.002-12.41-9.353-14.659-16.188-2.248-6.745-1.573-14.119 2.024-22.168l32.689-67.764c-5.396 36.153 4.766 56.073 18.21 66.955h.045z" fill="url(#paint4_linear_128_543)"/><path d="M278.919 44.336l-13.13 28.284h-72.302l9.217-19.38c2.743-5.711 2.563-10.702-.584-14.93-3.148-4.226-8.408-6.34-15.783-6.34-8.228 0-15.647 1.844-22.257 5.397-6.61 3.597-11.331 8.363-14.164 14.299 21.853-44.697 65.468-43.438 97.708-39.75 25.36 2.922 32.509 15.333 34.263 23.922-.585 2.743-1.574 5.576-2.968 8.498z" fill="url(#paint5_linear_128_543)"/><path d="M140.024 180.36c-1.394 1.664-2.518 3.507-3.462 5.486l-18.75 38.806H56.526c-3.688 0-7.195-.225-10.522-.72l22.032-46.765c4.182-8.408 10.162-15.783 17.896-22.123 5.89-4.811 12.545-8.768 20.009-11.871l-13.984 29.183c-3.057 5.936-2.922 10.837.36 14.614 3.238 3.822 8.813 5.711 16.592 5.711 8.228 0 15.558-1.799 22.077-5.396 3.553-1.934 6.52-4.227 8.948-6.88l.09-.045z" fill="url(#paint6_linear_128_543)"/><path d="M812.42 270.292c0 5.172-4.046 9.488-9.352 9.488s-9.488-4.316-9.488-9.488c0-5.171 4.317-9.353 9.488-9.353a9.345 9.345 0 019.352 9.353zm77.249-1.619c0 12.681-2.473 21.179-9.982 27.61-5.935 4.946-13.804 7.284-23.786 7.284-17.986 0-29.452-7.015-33.903-20.684h18.12c3.328 3.957 8.274 5.665 15.153 5.665 6.026 0 10.972-1.618 13.939-4.316 3.957-3.688 4.047-8.139 4.047-14.3-5.441 5.306-11.331 8.139-19.829 8.139-17.626 0-31.43-14.029-31.43-33.635 0-19.605 13.939-33.499 30.575-33.499 8.139 0 14.524 3.057 20.684 8.858v-7.15h16.412v56.073-.045zm-51.124-24.147c0 10.837 7.778 18.481 17.985 18.481s17.626-7.284 17.626-18.346c0-11.061-7.014-18.751-17.851-18.751-10.836 0-17.76 8.499-17.76 18.616zm129.497.72c0 18.976-14.659 34.489-34.623 34.489s-33.993-15.154-33.993-34.399c0-19.246 16.008-34.489 33.903-34.489 19.11 0 34.758 15.018 34.758 34.399h-.045zm-52.114 0c0 11.107 7.015 18.976 17.626 18.976 10.612 0 17.986-7.375 17.986-18.841 0-11.467-7.284-18.976-17.986-18.976-10.701 0-17.626 8.004-17.626 18.841zm54.676-32.645h16.771l16.505 38.581 16.5-38.581h16.64l-27.84 65.426h-10.608l-27.968-65.426zm90.696 57.691c0 5.172-4.05 9.488-9.35 9.488-5.31 0-9.49-4.316-9.49-9.488 0-5.171 4.31-9.353 9.49-9.353 5.17 0 9.35 4.182 9.35 9.353zm28.82 7.734h-16.41v-90.697h16.41v32.421c5.94-5.936 12.68-8.859 20.59-8.859 16.87 0 30.94 14.03 30.94 34.49 0 20.459-14.66 34.399-31.3 34.399-8.27 0-14.29-2.968-20.19-8.634v6.88h-.04zm-.72-32.87c0 11.826 7.87 19.605 17.99 19.605 10.11 0 17.76-8.274 17.76-19.47 0-11.197-6.88-19.336-17.76-19.336-10.89 0-17.99 7.779-17.99 19.201zm78.33-25.901c6.29-5.306 12.09-8.363 19.33-8.363 12.19 0 22.44 8.363 22.44 22.438v44.741h-16.37v-30.937c0-12.95-1.12-21.179-11.1-21.179-4.54 0-8.5 2.204-11.11 6.296-3.33 5.306-3.19 11.196-3.19 17.986v27.834h-16.41v-65.426h16.41v6.655-.045z" fill="#fff"/></g></g><defs><linearGradient id="paint0_linear_128_543" x1="174.152" y1="148.659" x2="128.465" y2="283.871" gradientUnits="userSpaceOnUse"><stop stop-color="#00ADA7"/><stop offset="1" stop-color="#00DBD1"/></linearGradient><linearGradient id="paint1_linear_128_543" x1="106.03" y1="305.052" x2="70.506" y2="378.705" gradientUnits="userSpaceOnUse"><stop stop-color="#00ADA7"/><stop offset="1" stop-color="#00DBD1"/></linearGradient><linearGradient id="paint2_linear_128_543" x1="166.598" y1="66.64" x2="144.564" y2="202.933" gradientUnits="userSpaceOnUse"><stop stop-color="#F9C52A"/><stop offset="1" stop-color="#F9992A"/></linearGradient><linearGradient id="paint3_linear_128_543" x1="170.735" y1="175.414" x2="152.972" y2="282.028" gradientUnits="userSpaceOnUse"><stop stop-color="#F9C52A"/><stop offset="1" stop-color="#F9992A"/></linearGradient><linearGradient id="paint4_linear_128_543" x1="45.059" y1="154.459" x2="27.296" y2="261.119" gradientUnits="userSpaceOnUse"><stop stop-color="#F9C52A"/><stop offset="1" stop-color="#F9992A"/></linearGradient><linearGradient id="paint5_linear_128_543" x1="209.629" y1="72.575" x2="225.728" y2="-1.034" gradientUnits="userSpaceOnUse"><stop stop-color="#F9C52A"/><stop offset="1" stop-color="#F9992A"/></linearGradient><linearGradient id="paint6_linear_128_543" x1="117.587" y1="129.548" x2="71.9" y2="264.76" gradientUnits="userSpaceOnUse"><stop stop-color="#00ADA7"/><stop offset="1" stop-color="#00DBD1"/></linearGradient><clipPath id="clip0_128_543"><path fill="#fff" transform="translate(.5)" d="M0 0h1209v360H0z"/></clipPath></defs></svg>