<svg width="40" height="40" viewBox="0 0 40 40" fill="none" xmlns="http://www.w3.org/2000/svg"><path d="M37.443 21.413a8.085 8.085 0 00-1.7-2.344 8.187 8.187 0 00-5.72-2.31h-2.956l-3.64-7.129a2.1 2.1 0 00-1.878-1.15h-10A2.101 2.101 0 009.67 9.63l-3.64 7.13h-.624a3.676 3.676 0 00-3.672 3.671v5.763a2.112 2.112 0 002.11 2.109h1.79a4.507 4.507 0 008.637 0h9.041a4.507 4.507 0 008.637 0h4.207a2.112 2.112 0 002.11-2.11V25a8.12 8.12 0 00-.823-3.587zM35.13 20.01c.33.333.624.7.878 1.094h-2.536a.739.739 0 01-.738-.739v-.355h2.396zm-14.299-8.25l2.552 4.998h-6.29V11.76h3.738zm-4.831 5H9.713l2.552-4.998H16v4.998zm-5.357-6.631a1.011 1.011 0 01.905-.554h10a1.012 1.012 0 01.905.554l3.386 6.631h-1.228l-2.958-5.793a.546.546 0 00-.487-.298H11.93a.547.547 0 00-.488.298L8.484 16.76H7.257l3.386-6.631zm-6.8 17.081a1.017 1.017 0 01-1.015-1.015V20.43a2.58 2.58 0 012.578-2.578h.628v6.934a4.406 4.406 0 00-.581 2.422h-1.61zm6.11 3.217a3.42 3.42 0 01-3.354-2.776v-.006a3.415 3.415 0 113.354 2.782zm0-7.925a4.485 4.485 0 00-2.825 1v-5.647H16v9.355h-1.548c.002-.066.01-.132.01-.199a4.515 4.515 0 00-4.51-4.51zm7.14 4.708v-9.355h9.095v4.888a4.515 4.515 0 00-3.066 4.268c0 .067.007.133.01.2h-6.038zm10.539 3.217a3.416 3.416 0 110-6.832 3.416 3.416 0 010 6.832zm9.54-4.232a1.017 1.017 0 01-1.016 1.015h-4.025c.003-.066.01-.132.01-.199a4.515 4.515 0 00-4.51-4.51c-.118 0-.235.009-.351.018v-4.665h2.745a7.098 7.098 0 013.742 1.063h-1.58a.547.547 0 00-.546.546v.903a1.834 1.834 0 001.831 1.832h3.125c.382.885.577 1.84.575 2.803v1.194z" fill="#000"/><path d="M9.952 24.813a2.198 2.198 0 100 4.395 2.198 2.198 0 000-4.395zm0 3.302a1.105 1.105 0 110-2.21 1.105 1.105 0 010 2.21zm17.679-3.302a2.198 2.198 0 100 4.396 2.198 2.198 0 000-4.396zm0 3.302a1.105 1.105 0 110-2.21 1.105 1.105 0 010 2.21zm-6.881-8.103h-1.834a.547.547 0 100 1.093h1.834a.547.547 0 100-1.093z" fill="#000"/></svg>