<svg width="40" height="40" viewBox="0 0 40 40" fill="none" xmlns="http://www.w3.org/2000/svg"><path d="M11.982 19.23a3.062 3.062 0 00-2.925-2.168A3.06 3.06 0 006 20.12a3.06 3.06 0 003.057 3.056 3.06 3.06 0 002.923-2.164h1.877a6.178 6.178 0 001.171 2.819l-1.412 1.412a3.042 3.042 0 00-1.438-.358c-.817 0-1.584.318-2.161.896a3.06 3.06 0 000 4.323 3.036 3.036 0 002.16.895c.817 0 1.585-.318 2.162-.895a3.063 3.063 0 00.535-3.601l1.413-1.413a6.179 6.179 0 002.823 1.172v1.996a3.062 3.062 0 00-2.167 2.924A3.06 3.06 0 0020 34.238a3.06 3.06 0 003.056-3.057 3.062 3.062 0 00-2.166-2.924v-1.996a6.177 6.177 0 002.82-1.17l1.305 1.304a4.19 4.19 0 00-.588 2.15c0 1.126.438 2.184 1.234 2.98a4.2 4.2 0 002.98 1.232 4.2 4.2 0 002.98-1.232 4.186 4.186 0 001.234-2.98 4.186 4.186 0 00-1.235-2.98 4.22 4.22 0 00-5.392-.475l-1.258-1.258a6.18 6.18 0 001.173-2.82h1.877a3.062 3.062 0 002.923 2.164A3.06 3.06 0 0034 20.119a3.06 3.06 0 00-3.057-3.057 3.062 3.062 0 00-2.925 2.169h-1.873a6.179 6.179 0 00-1.173-2.827l1.41-1.41a3.06 3.06 0 003.601-.536 3.06 3.06 0 000-4.323 3.06 3.06 0 00-4.322 0 3.062 3.062 0 00-.537 3.599l-1.411 1.411a6.176 6.176 0 00-2.823-1.172v-1.992a3.062 3.062 0 002.167-2.924A3.06 3.06 0 0020 6a3.06 3.06 0 00-3.056 3.057 3.06 3.06 0 002.166 2.924v1.992a6.177 6.177 0 00-2.825 1.174l-1.283-1.283A4.222 4.222 0 0014.44 8.6a4.186 4.186 0 00-2.98-1.235A4.186 4.186 0 008.482 8.6a4.186 4.186 0 00-1.234 2.98 4.19 4.19 0 001.234 2.98 4.187 4.187 0 002.98 1.233c.822 0 1.608-.234 2.282-.67l1.284 1.283a6.177 6.177 0 00-1.171 2.825h-1.874zm-2.925 2.165a1.278 1.278 0 01-1.277-1.276 1.278 1.278 0 012.552 0c0 .703-.572 1.276-1.275 1.276zm4.024 7.449a1.268 1.268 0 01-.903.373 1.278 1.278 0 010-2.552 1.278 1.278 0 01.903 2.179zm13.84-2.02a2.426 2.426 0 011.72-.712c.623 0 1.246.238 1.72.712.46.46.713 1.07.713 1.72a2.42 2.42 0 01-.713 1.722 2.436 2.436 0 01-3.44 0 2.418 2.418 0 01-.714-1.721c0-.65.253-1.261.713-1.72zm4.022-7.981c.704 0 1.277.572 1.277 1.276a1.278 1.278 0 01-2.552 0c0-.704.572-1.276 1.275-1.276zm-4.023-7.449c.248-.249.575-.373.902-.373a1.278 1.278 0 01.902 2.178 1.278 1.278 0 01-1.804 0 1.278 1.278 0 010-1.805zm-5.644 19.787c0 .704-.572 1.276-1.276 1.276a1.278 1.278 0 01-1.276-1.276c0-.703.572-1.276 1.276-1.276.704 0 1.276.573 1.276 1.276zM18.724 9.056c0-.703.572-1.276 1.276-1.276a1.278 1.278 0 010 2.553 1.278 1.278 0 01-1.276-1.277zM20 15.69a4.432 4.432 0 014.427 4.427A4.432 4.432 0 0120 24.544a4.432 4.432 0 01-4.427-4.427A4.432 4.432 0 0120 15.69zm-6.819-2.39c-.46.46-1.07.713-1.72.713-.65 0-1.261-.253-1.72-.713a2.417 2.417 0 01-.714-1.72c0-.651.253-1.262.713-1.722.46-.46 1.07-.712 1.72-.712.65 0 1.262.253 1.721.712a2.437 2.437 0 010 3.442z" fill="#000"/><path d="M19.018 23.936a.89.89 0 100-1.78.89.89 0 000 1.78z" fill="#000"/><path d="M19.018 23.936a.89.89 0 100-1.78.89.89 0 000 1.78z" fill="#000"/><path d="M19.018 23.936a.89.89 0 100-1.78.89.89 0 000 1.78z" fill="#000"/></svg>