<svg width="40" height="40" viewBox="0 0 40 40" fill="none" xmlns="http://www.w3.org/2000/svg"><path d="M37.913 9.587c.75-1.8-.544-3.918-3.932-3.918H6.02c-3.4 0-4.675 2.125-3.932 3.918C6.662 20.55 6.207 19.85 7.081 20.462c-.881.607-.419-.106-4.994 10.888-.75 1.8.538 3.913 3.925 3.913h27.97c3.4 0 4.668-2.12 3.924-3.913-4.518-10.85-4.112-10.281-4.993-10.888.875-.606.406.125 5-10.875zm-1.157 22.244c.594 1.425-1.162 2.182-2.769 2.182H6.012c-1.587 0-3.368-.75-2.768-2.182l4.112-9.869c.231-.562 1.606-1.187 3.194-1.187h18.9c1.594 0 2.963.625 3.194 1.188l4.112 9.868zm-4.112-12.856c-.094.225-.456.563-1.169.831a7.442 7.442 0 00-2.025-.287c-20.244 0-19.544-.113-20.919.287-.712-.268-1.081-.612-1.169-.837L3.25 9.106C2.65 7.67 4.437 6.92 6.025 6.92h27.962c1.613 0 3.37.762 2.776 2.187l-4.12 9.869zM17.775 9.612h4.456c.825 0 .825 1.25 0 1.25h-4.456c-.825 0-.825-1.25 0-1.25zm12.031 4.063H10.187c-.825 0-.825-1.25 0-1.25h19.62c.824 0 .824 1.25 0 1.25zm0 3.125H10.187c-.825 0-.825-1.25 0-1.25h19.62c.824 0 .824 1.25 0 1.25zm-18.144 6.387c-3.13.92-4.675 4.407-2.6 6.513 1.482 1.75 4.42 2.619 7.238 1.95.012 0 .025 0 .037-.012 2.488-.6 4.288-2.32 4.288-4.338 0-2.775-3.712-5.631-8.963-4.119v.006zm-2.1 5.007c-.618-1.469.35-2.813 1.82-3.544.324 2.337-.745 2.494-1.82 3.544zm.744 1.037c.925-1.025 2.894-1.594 2.269-5.019 1.681-.43 3.488-.224 4.831.463a50.01 50.01 0 00-.668 1.613c-.732.687-2.757.593-2.482 2.887.056.5.256.994.55 1.438-1.962.112-3.575-.526-4.493-1.382h-.007zm5.944 1.15c-.406-.381-.7-.881-.756-1.356-.088-.731.125-.819.831-1.106 1.713-.688 1.45-.994 2.125-2.538.581.544.925 1.2.925 1.919 0 1.394-1.294 2.581-3.125 3.075v.006zm13.131-5.768h-4.069c-.825 0-.825-1.25 0-1.25h4.07c.824 0 .824 1.25 0 1.25zm0 3.125h-4.069c-.825 0-.825-1.25 0-1.25h4.07c.824 0 .824 1.25 0 1.25zm0 3.125h-4.069c-.825 0-.825-1.25 0-1.25h4.07c.824 0 .824 1.25 0 1.25z" fill="#000"/></svg>