<svg width="105" height="22" viewBox="0 0 105 22" fill="none" xmlns="http://www.w3.org/2000/svg"><path d="M14.273 7.219a4.464 4.464 0 00-.587-1.283 3.623 3.623 0 00-.925-.954 3.967 3.967 0 00-1.233-.607 5.211 5.211 0 00-1.52-.209c-1.042 0-1.956.259-2.745.776-.782.517-1.392 1.27-1.83 2.257-.437.98-.656 2.18-.656 3.6 0 1.418.215 2.624.646 3.619.431.994 1.041 1.753 1.83 2.277.789.517 1.72.775 2.794.775.974 0 1.806-.172 2.496-.517.696-.351 1.226-.845 1.59-1.481.372-.637.557-1.39.557-2.258l.875.13h-5.25v-3.242h8.522v2.566c0 1.79-.378 3.327-1.134 4.613a7.726 7.726 0 01-3.122 2.963c-1.326.69-2.844 1.034-4.554 1.034-1.91 0-3.586-.42-5.031-1.262-1.445-.849-2.572-2.052-3.38-3.61-.803-1.564-1.204-3.42-1.204-5.568 0-1.65.239-3.122.716-4.415.484-1.299 1.16-2.4 2.028-3.3a8.765 8.765 0 013.033-2.06C7.342.594 8.592.359 9.937.359c1.154 0 2.228.169 3.222.507a8.583 8.583 0 012.645 1.412 7.646 7.646 0 011.9 2.178c.49.835.805 1.756.944 2.764h-4.375zm26.51 3.6c0 2.22-.42 4.109-1.262 5.667-.835 1.558-1.975 2.747-3.42 3.57-1.439.815-3.056 1.222-4.853 1.222-1.81 0-3.434-.41-4.872-1.232-1.438-.822-2.575-2.012-3.41-3.57-.836-1.558-1.253-3.444-1.253-5.658 0-2.22.417-4.11 1.253-5.667.835-1.558 1.972-2.745 3.41-3.56C27.814.769 29.44.358 31.248.358c1.797 0 3.414.41 4.852 1.233 1.446.815 2.586 2.002 3.421 3.56.842 1.557 1.263 3.447 1.263 5.667zm-4.364 0c0-1.44-.216-2.652-.647-3.64-.424-.988-1.024-1.737-1.8-2.247-.775-.51-1.683-.766-2.724-.766-1.04 0-1.949.255-2.724.766-.776.51-1.379 1.26-1.81 2.247-.424.988-.636 2.2-.636 3.64 0 1.438.212 2.65.636 3.638.431.988 1.034 1.737 1.81 2.247.775.511 1.683.766 2.724.766 1.04 0 1.95-.255 2.725-.765.775-.51 1.375-1.26 1.8-2.248.43-.987.646-2.2.646-3.639zM46.504.635l4.921 15.472h.19L56.545.636h4.773L54.299 21h-5.548L41.72.636h4.783zM63.459 21.26c-.656 0-1.22-.233-1.69-.697a2.323 2.323 0 01-.696-1.69c0-.65.232-1.206.696-1.67a2.323 2.323 0 011.69-.696c.636 0 1.193.232 1.67.696.478.464.716 1.02.716 1.67 0 .438-.112.839-.338 1.203a2.571 2.571 0 01-.865.865 2.277 2.277 0 01-1.183.319zm5.944-.26V.636h8.153c1.498 0 2.748.222 3.749.667 1 .444 1.753 1.06 2.257 1.849.504.782.755 1.684.755 2.705 0 .795-.159 1.494-.477 2.098a4.12 4.12 0 01-1.312 1.471 5.38 5.38 0 01-1.89.806v.198a4.56 4.56 0 012.178.657 4.649 4.649 0 011.66 1.7c.425.722.637 1.584.637 2.585 0 1.08-.269 2.045-.805 2.894-.53.842-1.316 1.508-2.357 1.998-1.04.49-2.323.736-3.848.736h-8.7zm4.305-3.52h3.51c1.2 0 2.075-.229 2.625-.686.55-.464.825-1.08.825-1.85 0-.563-.136-1.06-.407-1.49a2.77 2.77 0 00-1.164-1.015c-.497-.245-1.09-.368-1.78-.368h-3.609v5.41zm0-8.322H76.9c.59 0 1.113-.103 1.57-.309.465-.212.83-.51 1.095-.894.271-.385.407-.846.407-1.383 0-.735-.261-1.329-.785-1.78-.517-.45-1.253-.676-2.208-.676h-3.27v5.042zM104.947.636V21h-3.719L92.369 8.183h-.15V21h-4.305V.636h3.779l8.79 12.807h.179V.636h4.285z" fill="#07203B"/></svg>