<svg width="60" height="60" viewBox="0 0 60 60" fill="none" xmlns="http://www.w3.org/2000/svg"><path d="M54.417 36.162L27.123 51.92 6.953 40.272 34.25 24.515l20.167 11.647z" fill="#DAE0E5"/><path d="M6.953 40.272L34.25 24.515l20.167 11.647L27.123 51.92 6.953 40.272zm36.358-3.3l-14.779 8.536m7.299-12.854l-2.356 1.36m-3.632 2.098l-8.79 5.075M32.84 30.929L18.061 39.46m22.758-3.927l-1.147.663m-4.417 2.544l-9.215 5.327m12.286-9.973l-10.349 5.974m-2.972 1.719l-1.462.839" stroke="#3A3A3A" stroke-width=".631" stroke-linecap="round" stroke-linejoin="round"/><path d="M33.888 31.242c.904.438 1.74.776 2.314.88.502.088 1.003.145 1.472.21.827.103 1.571.21 2.127.55a1.02 1.02 0 01-.129 1.829 6.491 6.491 0 01-1.807.473 7.912 7.912 0 01-2.446-.111l.223.342c-2.427 1.263-4.876 1.023-7.423.181-.976.793-2.347 1.164-3.66 1.321a7.094 7.094 0 01-5.932-2.183c-.912-.957-1.037-1.53-1.855-2.457a11.52 11.52 0 00-1.262-1.207 44.29 44.29 0 00-5.364-3.898 11.068 11.068 0 01-.145-1.136c-.42-5.98 2.701-9.979 5.852-11.255 2.524 1.552 4.566 2.734 6.31 3.664 3.76 2.023 6.113 2.917 9.085 4.04l1.977 6.54c-1.857-.913-4.474-.696-4.474-.696s2.8 1.786 5.137 2.913z" fill="#fff"/><path d="M37.882 35.184v3.65l-2.446-3.766c.805.164 1.63.202 2.446.112v.004z" fill="#373A3A"/><path d="M36.492 25.239a2.15 2.15 0 011.262 2.636c-.34 1.096-.665 2.364-.53 2.894l-1.805-5.963 1.073.433z" fill="#fff"/><path d="M37.224 30.798l.467 1.536c-.476-.063-.976-.12-1.473-.21-.58-.104-1.415-.442-2.313-.88l-.667-2.21L26.45 6.657c.183.587 1.052.842 1.914.56.863-.282 1.407-.936 1.262-1.515l7.598 25.096z" fill="#F6D84C"/><path d="M29.626 5.702c.145.579-.406 1.25-1.262 1.515-.856.265-1.73.027-1.914-.56-.18-.582.38-1.274 1.262-1.546.755-.237 1.727-.092 1.916.568l-.002.023z" fill="#fff"/><path d="M20.22 15.046c1.232 1.039 1.872 2.08 1.935 3.403-1.736-.934-3.77-2.112-6.302-3.668 1.6-.644 3.212-.59 4.367.265z" fill="#373A3A"/><path d="M10.161 27.174c.297 1.62.993 3.075 2.261 4.152-1.874-1.106-5.595-3.365-5.679-3.412-7.084-4.627.942-20.192 8.374-16.07 2.246 1.229 3.929 2.215 5.103 3.202-1.155-.854-2.766-.909-4.367-.265-3.155 1.262-6.27 5.27-5.837 11.253.029.382.077.763.145 1.14z" fill="#5F646B"/><path d="M16.789 32.28c-1.104.42-2.36-.018-3.896-.674l-.47-.28c-1.263-1.077-1.965-2.524-2.262-4.152a44.3 44.3 0 015.364 3.898c.451.37.874.773 1.264 1.207z" fill="#373A3A"/><path d="M6.987 28.064c1.752 1.07 5.749 3.447 5.906 3.544 1.536.656 2.792 1.098 3.896.673m-.936-17.501c2.524 1.553 4.566 2.735 6.31 3.665 3.759 2.023 6.113 2.917 9.085 4.04" stroke="#3A3A3A" stroke-width=".631" stroke-linecap="round" stroke-linejoin="round"/><path d="M20.22 15.046c-1.155-.854-2.766-.909-4.367-.265-3.155 1.262-6.27 5.27-5.837 11.253.029.38.077.76.145 1.136.297 1.62.993 3.075 2.261 4.152" stroke="#3A3A3A" stroke-width=".631" stroke-linecap="round" stroke-linejoin="round"/><path d="M10.159 27.174a44.3 44.3 0 015.364 3.898c.45.37.872.773 1.262 1.207.816.928.942 1.5 1.855 2.457a7.093 7.093 0 005.932 2.183c1.312-.157 2.684-.528 3.66-1.32a.038.038 0 00.016-.011" stroke="#3A3A3A" stroke-width=".631" stroke-linecap="round" stroke-linejoin="round"/><path d="M23.726 33.712a43.983 43.983 0 004.51 1.893c2.547.841 4.995 1.083 7.423-.181m-.223-.352c.805.163 1.63.2 2.446.112a6.54 6.54 0 001.807-.473 1.02 1.02 0 00.128-1.828c-.555-.333-1.3-.446-2.126-.551-.478-.061-.976-.12-1.473-.21-.58-.104-1.415-.442-2.313-.88-2.337-1.127-5.127-2.898-5.143-2.909-.017-.01 2.616-.21 4.474.696" stroke="#3A3A3A" stroke-width=".631" stroke-linecap="round" stroke-linejoin="round"/><path d="M37.882 35.19v3.65l-2.446-3.765m-8.396-3.376c3.381 1.609 6.042 2.928 8.402 3.365M26.448 6.653l6.77 22.372c.687 2.272.67 2.194.668 2.21m-4.26-25.533c.145.579-.406 1.25-1.262 1.515-.856.265-1.73.027-1.914-.56m-.002-.004c-.181-.583.38-1.275 1.262-1.546.755-.238 1.727-.093 1.916.568m7.592 25.094L29.62 5.675m8.07 26.659l-.466-1.536m-1.811-5.992l1.079.433a2.15 2.15 0 011.262 2.636c-.34 1.096-.665 2.364-.53 2.894v.03M22.155 18.45c-.063-1.324-.703-2.365-1.935-3.404-1.174-.987-2.857-1.973-5.097-3.21C7.687 7.717-.335 23.276 6.75 27.915c.078.052.156.1.238.149" stroke="#3A3A3A" stroke-width=".631" stroke-linecap="round" stroke-linejoin="round"/></svg>