<svg width="60" height="60" viewBox="0 0 60 60" fill="none" xmlns="http://www.w3.org/2000/svg"><g clip-path="url(#clip0_56_438)"><path d="M50.923 44.874a.24.24 0 01.025.172c-.257 1.183-1.652 1.787-2.471 2.047a.915.915 0 01-.982-.284 24.13 24.13 0 00-2.89-2.897 20.151 20.151 0 003.596-4.933 39.511 39.511 0 002.722 5.895z" fill="#969A9E"/><path d="M29.791 24.286c-1.487.142-2.964 2.1-3.216 5.131 3.195.975 4.559 2.152 5.543 4.96 0 0 2.111.43 3.01.548 1.132-6.25-2.538-9.502-4.296-10.428a1.79 1.79 0 00-1.041-.211zm20.459 6.575a17.764 17.764 0 01-2.062 8.118 20.036 20.036 0 01-3.595 4.933c-.026.026-.05.052-.078.078a27.99 27.99 0 01-12.162 6.99 26.032 26.032 0 01-6.879.989c-3.214 0-6.255-.673-8.78-2.113l2.788-1.609c.73-.42 1.18-1.322 1.18-2.608 0-2.577-1.804-5.69-4.028-6.977-1.114-.639-2.121-.7-2.835-.28l-3.163 1.809-.07.04a1.84 1.84 0 00-.298.212 20.095 20.095 0 01-.31-3.587 19.587 19.587 0 013.165-10.627s3.029-3.608 5.542-2.933c0 0 1.353-.683 2.242-1.185a16.07 16.07 0 00-1.683-1.871c3.73-2.359 8.644-3.838 14.866-3.838 3.093 0 5.608.515 7.67 1.394a13.93 13.93 0 012.918 1.652c4.327 3.207 5.572 8.232 5.572 11.413zM35.34 19.149l-1.175-.812c-3.704 0-8.248 2.196-10.013 4.676l1.394 1.263c2.116-2.843 5.704-4.717 9.794-5.127z" fill="#DAE0E5"/><path d="M43.278 12.866c1.204 1.433 2.111 3.371 1.413 6.577a13.915 13.915 0 00-2.918-1.652c.946-1.448 1.32-3.023 1.505-4.925zm-9.113 5.471l1.175.812c-4.09.41-7.678 2.284-9.794 5.127l-1.394-1.263c1.773-2.487 6.31-4.68 10.013-4.676z" fill="#373A3A"/><path d="M30.832 24.497c1.758.936 5.428 4.178 4.297 10.428-.9-.118-3.01-.549-3.01-.549.574-4.662.476-9.848-2.32-10.09.358-.035.718.039 1.033.211z" fill="#5F646B"/><path d="M29.791 24.286c2.805.242 2.902 5.428 2.32 10.09-.985-2.806-2.348-3.984-5.544-4.959.26-3.03 1.737-4.99 3.224-5.131z" fill="#fff"/><path d="M32.366 50.98c-.32 1.54-.545 3.1-.67 4.67a.935.935 0 01-.714.827 12.89 12.89 0 01-3.807.389.792.792 0 01-.74-.608c-.226-.949-.677-2.866-.96-4.286a26.03 26.03 0 006.891-.993zm-11.704-5.351c0 1.288-.45 2.188-1.18 2.608l-2.789 1.608-.056-.028c.515-.487.806-1.289.806-2.32 0-2.577-1.804-5.693-4.028-6.977-1.077-.623-2.062-.698-2.778-.322l3.149-1.82c.727-.42 1.735-.358 2.848.282 2.224 1.278 4.028 4.402 4.028 6.969z" fill="#969A9E"/><path d="M20.907 22.11c-.889.503-2.242 1.186-2.242 1.186-1.27-2.835-4.768-6.469-6.155-5.07a1.915 1.915 0 011.031-.979c1.518-.538 3.977 1.333 5.67 2.993.614.578 1.18 1.204 1.696 1.87z" fill="#5F646B"/><path d="M18.665 23.296c-2.513-.683-5.541 2.933-5.541 2.933-1.111-2.335-1.58-6.147-.616-7.99 1.389-1.41 4.886 2.225 6.157 5.057zm-1.972 26.549l-.368.214c.112-.07.216-.15.312-.242l.056.028z" fill="#fff"/><path d="M17.443 47.49c0 1.046-.299 1.84-.806 2.32-.096.09-.2.172-.312.241l-.062.037c-.237.139-.5.227-.773.257a3.4 3.4 0 01-2.083-.533 7.116 7.116 0 01-1.685-1.4c-1.384-1.546-2.343-3.703-2.343-5.577 0-1.098.33-1.918.881-2.394a1.71 1.71 0 01.3-.212l.069-.04c.722-.377 1.701-.303 2.778.321 2.232 1.286 4.036 4.41 4.036 6.98zm-2.484-.774a1.25 1.25 0 00-.565-.976c-.309-.18-.561-.034-.561.324a1.25 1.25 0 00.561.977c.312.194.565.047.565-.312v-.013zm-2.853-2.51a1.235 1.235 0 00-.565-.977c-.309-.18-.562-.033-.562.325a1.244 1.244 0 00.562.974c.315.194.565.05.565-.309v-.013z" fill="#fff"/><path d="M15.498 50.348l-.686.925a1 1 0 01-1.08.374 5.218 5.218 0 01-2.118-1.01.794.794 0 01-.258-.83c.09-.315.221-.786.376-1.392a7.113 7.113 0 001.686 1.4 3.4 3.4 0 002.08.533z" fill="#969A9E"/><path d="M14.394 45.752a1.25 1.25 0 01.565.977c0 .358-.258.516-.565.325a1.251 1.251 0 01-.562-.977c0-.358.253-.505.562-.325zm-2.853-2.51a1.235 1.235 0 01.565.977c0 .358-.258.503-.565.322a1.244 1.244 0 01-.562-.974c0-.36.253-.505.562-.325z" fill="#373A3A"/><path d="M19.224 20.24c3.73-2.359 8.645-3.838 14.866-3.838 3.093 0 5.606.528 7.67 1.394a13.93 13.93 0 012.918 1.652c4.327 3.212 5.572 8.248 5.572 11.418a17.763 17.763 0 01-2.062 8.118 20.034 20.034 0 01-3.595 4.933c-.026.026-.05.052-.078.078a27.964 27.964 0 01-12.162 6.99 25.929 25.929 0 01-6.879.984c-3.214 0-6.255-.673-8.78-2.113l-.057-.029m-6.369-9.384a20.095 20.095 0 01-.31-3.587 19.588 19.588 0 013.165-10.627" stroke="#373A3A" stroke-width=".773" stroke-linecap="round" stroke-linejoin="round"/><path d="M41.76 17.791c.959-1.448 1.333-3.023 1.505-4.925 1.204 1.433 2.111 3.371 1.413 6.577M25.474 51.969c.284 1.42.735 3.338.962 4.286a.79.79 0 00.74.61c1.28.066 2.563-.061 3.806-.375a.935.935 0 00.714-.828c.125-1.569.35-3.129.67-4.67m12.24-7.08a24.121 24.121 0 012.889 2.902.915.915 0 00.982.284c.82-.258 2.2-.864 2.471-2.047a.239.239 0 00-.025-.172 39.509 39.509 0 01-2.722-5.9m-16.083-4.603c-.984-2.806-2.347-3.984-5.543-4.958.257-3.031 1.732-4.982 3.216-5.132.357-.035.716.04 1.031.211 1.758.936 5.428 4.178 4.296 10.428-.889-.118-3-.549-3-.549z" stroke="#373A3A" stroke-width=".773" stroke-linecap="round" stroke-linejoin="round"/><path d="M32.118 34.376c.575-4.662.47-9.793-2.32-10.09a1.818 1.818 0 00-.208 0M12.508 18.23a1.926 1.926 0 011.03-.983c1.519-.538 3.977 1.333 5.67 2.993a16.08 16.08 0 011.684 1.87c-.89.503-2.243 1.186-2.243 1.186-2.497-.683-5.525 2.933-5.525 2.933-1.111-2.335-1.58-6.147-.616-8zm6.157 5.066c-1.27-2.835-4.768-6.469-6.155-5.07m11.642 4.787l1.394 1.263c2.116-2.835 5.704-4.717 9.794-5.127l-1.175-.812c-3.704-.005-8.24 2.189-10.013 4.676zm-7.889 27.082c-.237.14-.5.227-.773.258a3.415 3.415 0 01-2.083-.534 7.111 7.111 0 01-1.685-1.399c-1.384-1.546-2.343-3.704-2.343-5.577 0-1.098.33-1.918.881-2.395a1.7 1.7 0 01.3-.21l.069-.042c.722-.377 1.701-.302 2.778.322 2.225 1.289 4.029 4.407 4.029 6.977 0 1.046-.3 1.84-.807 2.32-.095.09-.2.172-.312.242" stroke="#373A3A" stroke-width=".773" stroke-linecap="round" stroke-linejoin="round"/><path d="M10.567 40.232l3.219-1.861c.727-.42 1.735-.358 2.848.281 2.224 1.289 4.028 4.41 4.028 6.977 0 1.288-.45 2.188-1.18 2.608l-3.22 1.858m-4.156-5.876c0 .358-.258.503-.565.322a1.244 1.244 0 01-.562-.974c0-.358.258-.516.562-.325a1.235 1.235 0 01.565.977z" stroke="#373A3A" stroke-width=".773" stroke-linecap="round" stroke-linejoin="round"/><path d="M14.959 46.73c0 .358-.258.515-.565.324a1.251 1.251 0 01-.562-.977c0-.358.258-.515.562-.324a1.25 1.25 0 01.565.976z" stroke="#373A3A" stroke-width=".773" stroke-linecap="round" stroke-linejoin="round"/><path d="M21.825 38.216v1.902m-8.003-6.425v1.82" stroke="#373A3A" stroke-width="1.546" stroke-linecap="round" stroke-linejoin="round"/><path d="M11.73 48.415a48.884 48.884 0 01-.377 1.392.794.794 0 00.258.83c.62.493 1.345.838 2.118 1.01a1 1 0 001.08-.374l.686-.925" stroke="#373A3A" stroke-width=".773" stroke-linecap="round" stroke-linejoin="round"/><path d="M27.222 4.093c-4.07 2.348-6.567 9.033-4.325 11.706.14.17.3.323.477.456.067.05.139.096.211.14l2.119 1.224a2.641 2.641 0 01-.724-.616c-2.235-2.663.257-9.364 4.332-11.707 1.394-.804 2.662-.897 3.593-.391l-2.088-1.207c-.94-.505-2.198-.414-3.595.395z" fill="#C2C7CC"/><path d="M29.312 5.296c-4.075 2.343-6.567 9.044-4.333 11.707a2.638 2.638 0 00.72.616c3.092 1.773 8.762-3.936 8.762-9.34 0-1.67-.595-2.836-1.546-3.351H32.9c-.926-.529-2.194-.436-3.588.368z" fill="#F6D84C"/><path d="M25.704 17.619c3.093 1.783 8.763-3.936 8.763-9.34 0-1.67-.596-2.836-1.547-3.351m-2.103-1.23l2.088 1.207c-.93-.516-2.199-.413-3.593.391-4.075 2.343-6.567 9.044-4.333 11.707a2.638 2.638 0 00.72.616" stroke="#373A3A" stroke-width=".773" stroke-linecap="round" stroke-linejoin="round"/><path d="M23.585 16.402a3.058 3.058 0 01-.211-.139 2.836 2.836 0 01-.477-.456c-2.242-2.673.258-9.358 4.325-11.706 1.396-.817 2.654-.908 3.595-.402m-5.113 13.92l-.709-.41m0 0l-1.41-.815" stroke="#373A3A" stroke-width=".773" stroke-linecap="round" stroke-linejoin="round"/><path d="M29.583 9.371c-.5.3-.944.685-1.312 1.137-.168.232-.291.515-.155.652.34.363 1.315-1.19 2.173-1.361.698-.137 1.394.796.412 2.454l.567.605-.618.856-.56-.61a4.38 4.38 0 01-1.546 1.174l-.214-1.015c1.01-.381 2.108-1.595 1.75-1.98-.44-.468-1.86 2.155-2.78 1.176-.424-.454-.315-1.289.177-2.152l-.544-.58.608-.848.531.58c.36-.439.797-.809 1.289-1.093l.222 1.005z" fill="#373A3A"/></g><defs><clipPath id="clip0_56_438"><path fill="#fff" transform="translate(9 3)" d="M0 0h42.34v55H0z"/></clipPath></defs></svg>