<svg width="60" height="60" viewBox="0 0 60 60" fill="none" xmlns="http://www.w3.org/2000/svg"><g clip-path="url(#clip0_56_620)"><g clip-path="url(#clip1_56_620)"><path d="M43.323 6.808c4.16 4.158 5.641 8.37 5.528 12.4-.49-12.437-12.614-14.135-19.41-14.135 2.993-1.932 5.543-2.193 9.131-1.377a14.836 14.836 0 014.751 3.112z" fill="#fff"/><path d="M48.838 19.208c-.16 5.528-3.34 10.69-6.768 14.901C52.918 16.876 36.937 7.687 29.436 5.08c6.793-.006 18.917 1.692 19.402 14.129z" fill="#969A9E"/><path d="M29.436 5.078C36.937 7.687 52.918 16.876 42.07 34.11c-1.842 2.264-3.761 4.251-5.322 5.862-1.561 1.611-2.764 2.843-3.177 3.606a2.243 2.243 0 00-.119.264 2.58 2.58 0 01-1.021.973 4.802 4.802 0 01-1.269.503c1.437-7.897 8.95-13.688 6.273-26.736-1.558-7.667-7.813-13.327-8-13.503z" fill="#fff"/><path d="M37.443 18.584c2.671 13.059-4.836 18.823-6.273 26.736a6.817 6.817 0 01-1.669.202h-.09V5.078h.022c.19.176 6.444 5.836 8.01 13.506zm1.129-14.888c-3.588-.816-6.138-.555-9.14 1.377h-.02v-3.07c3.177-.026 6.399.527 9.16 1.693z" fill="#969A9E"/><path d="M33.57 43.577c-.03.091-.07.18-.118.264.034-.09.074-.179.119-.264z" fill="#fff"/><path d="M32.65 50.153v3.006c0 .476-.314.953-.943 1.316-1.255.726-3.293.726-4.554 0-.626-.36-.942-.837-.942-1.316v-3.027c0 .476.316.953.942 1.316a5.03 5.03 0 004.554 0c.621-.353.937-.827.943-1.295z" fill="#F6D84C"/><path d="M32.65 50.132v.02c0 .47-.322.935-.943 1.293-.707.378-1.5.566-2.3.545v-3.72c.8-.017 1.592.171 2.3.545.63.366.943.843.943 1.317z" fill="#373A3A"/><path d="M29.412 2.004V5.07c-3.001-1.93-5.528-2.19-9.124-1.374 2.897-1.172 6-1.748 9.124-1.692zm.013 3.069C21.91 7.687 5.948 16.876 16.788 34.109c-3.422-4.212-6.602-9.379-6.768-14.901.495-12.435 12.606-14.13 19.405-14.135z" fill="#fff"/><path d="M29.412 5.07c-6.8 0-18.91 1.7-19.405 14.136-.121-4.03 1.363-8.242 5.528-12.401a14.94 14.94 0 014.738-3.111c3.606-.814 6.138-.553 9.139 1.376z" fill="#969A9E"/><path d="M29.412 5.078v40.45a7.243 7.243 0 01-1.719-.203c-1.437-7.897-8.95-13.688-6.273-26.736 1.572-7.673 7.79-13.33 7.992-13.51z" fill="#fff"/><path d="M29.407 48.27v3.72a4.633 4.633 0 01-2.254-.545c-.626-.36-.942-.837-.942-1.316 0-.48.316-.95.942-1.316a4.722 4.722 0 012.254-.542z" fill="#373A3A"/><path d="M27.693 45.32a4.801 4.801 0 01-1.264-.503 2.596 2.596 0 01-1.026-.974 1.628 1.628 0 00-.118-.263c-.824-1.522-4.804-4.933-8.495-9.476C5.948 16.876 21.91 7.687 29.412 5.078c-.203.182-6.42 5.838-7.992 13.506-2.671 13.059 4.836 18.823 6.273 26.736z" fill="#969A9E"/><path d="M25.285 43.58c.047.084.086.172.118.263a1.838 1.838 0 01-.118-.263z" fill="#fff"/><path d="M33.57 43.577c-.03.091-.07.18-.118.264a2.59 2.59 0 01-1.021.973 4.798 4.798 0 01-1.269.503 6.953 6.953 0 01-1.669.203h-.081a7.248 7.248 0 01-1.719-.203 4.801 4.801 0 01-1.264-.503 2.595 2.595 0 01-1.026-.974 1.838 1.838 0 01-.118-.263" stroke="#373A3A" stroke-width=".79" stroke-linecap="round" stroke-linejoin="round"/><path d="M16.79 34.11c3.685 4.535 7.67 7.946 8.495 9.475.047.084.086.172.118.263m8.057.001c.034-.09.074-.179.119-.264.405-.763 1.613-1.995 3.174-3.603 1.561-1.609 3.477-3.599 5.323-5.862 3.422-4.212 6.604-9.379 6.767-14.901.119-4.03-1.36-8.242-5.528-12.4a14.837 14.837 0 00-4.743-3.123c-2.761-1.166-5.983-1.692-9.16-1.692-3.177 0-6.37.524-9.123 1.692a14.867 14.867 0 00-4.738 3.112c-4.157 4.159-5.641 8.37-5.528 12.4.163 5.528 3.34 10.692 6.767 14.901" stroke="#373A3A" stroke-width=".79" stroke-linecap="round" stroke-linejoin="round"/><path d="M20.083 3.744a2.16 2.16 0 00.206-.048c3.577-.876 6.122-.555 9.123 1.374-6.8 0-18.91 1.7-19.405 14.135M38.78 3.744l-.208-.048c-3.575-.876-6.138-.555-9.14 1.377 6.797 0 18.921 1.698 19.41 14.135M29.436 5.078c.197.176 6.44 5.836 8.007 13.506 2.672 13.059-4.836 18.823-6.273 26.736m-3.477 0c-1.437-7.897-8.95-13.688-6.273-26.736C23 10.916 29.21 5.26 29.412 5.078m0-3.074v43.524" stroke="#373A3A" stroke-width=".79" stroke-linecap="round" stroke-linejoin="round"/><path d="M16.79 34.11C5.948 16.875 21.91 7.686 29.412 5.077h.02c7.503 2.609 23.483 11.798 12.636 29.031M32.65 50.153c0 .468-.322.934-.943 1.292a5.031 5.031 0 01-4.554 0c-.626-.36-.942-.837-.942-1.316 0-.48.316-.95.942-1.316a5.03 5.03 0 014.554 0c.63.366.943.842.943 1.316v.024z" stroke="#373A3A" stroke-width=".79" stroke-linecap="round" stroke-linejoin="round"/><path d="M32.65 50.132v3.027c0 .476-.314.953-.943 1.316-1.255.726-3.293.726-4.554 0-.626-.36-.942-.837-.942-1.316v-3.027m3.196 1.858v-6.462" stroke="#373A3A" stroke-width=".79" stroke-linecap="round" stroke-linejoin="round"/></g></g><defs><clipPath id="clip0_56_620"><path fill="#fff" d="M0 0h60v60H0z"/></clipPath><clipPath id="clip1_56_620"><path fill="#fff" transform="translate(10 -1)" d="M0 0h40.734v61.776H0z"/></clipPath></defs></svg>