<svg width="60" height="60" viewBox="0 0 60 60" fill="none" xmlns="http://www.w3.org/2000/svg"><g clip-path="url(#clip0_56_590)"><path d="M44.893 28.229a3.17 3.17 0 01-.498 1.612c-1.6 2.608-6.553 3.97-11.064 3.048l-5.46-1.128a4.449 4.449 0 00-6.885-4.941 4.448 4.448 0 00-1.775 3.17L9.025 27.907l8.611-14.04c.801-1.298 2.434-2.289 4.437-2.838 2.163-.58 4.432-.65 6.627-.207 3.595.735 5.822 2.699 5.781 4.784a3.166 3.166 0 01-.5 1.602l-2.83 4.606 7.97 1.627c2.256.463 3.973 1.408 4.927 2.564.545.613.845 1.404.845 2.224z" fill="#fff"/><path d="M44.893 28.229v8.632a3.181 3.181 0 01-.498 1.672c-1.6 2.604-6.553 3.968-11.064 3.044l-1.354-.277c-.073-5.72-1.858-7.957-4.23-9.198.045-.11.088-.225.125-.338l5.461 1.116c4.511.923 9.464-.44 11.064-3.047a3.17 3.17 0 00.496-1.604zM34.473 15.61v6.881l-3.322-.677 2.822-4.602a3.17 3.17 0 00.5-1.602z" fill="#5F646B"/><path d="M31.979 41.649c.07.722-.326 1.42-1.216 1.934l-6.08 3.51c-3.019 1.745-8.814.054-8.822-2.585v-.05c0-2.797.206-4.783.687-6.317.665-2.143 1.858-3.402 3.81-4.765a4.447 4.447 0 007.386-1.278c2.372 1.239 4.084 3.479 4.23 9.198.005.117.005.233.005.353z" fill="#DAE0E5"/><path d="M20.357 33.378a4.418 4.418 0 01-1.164-2.994c0-.132 0-.264.018-.394a4.449 4.449 0 017.023-3.215 4.447 4.447 0 011.51 5.325 4.447 4.447 0 01-7.387 1.278z" fill="#F6D84C"/><path d="M19.193 30.384a4.418 4.418 0 001.164 2.994c-1.947 1.363-3.144 2.622-3.809 4.765l-7.523-1.54v-8.696L19.21 29.99c-.012.13-.018.264-.018.394z" fill="#5F646B"/><path d="M27.87 31.762l5.461 1.116c4.511.923 9.464-.44 11.064-3.047a3.19 3.19 0 00.498-1.602 3.353 3.353 0 00-.845-2.222c-.954-1.156-2.671-2.101-4.928-2.564l-7.97-1.629 2.823-4.602a3.17 3.17 0 00.5-1.602c.05-2.079-2.178-4.048-5.773-4.784a14.506 14.506 0 00-6.627.207c-2.003.545-3.636 1.536-4.437 2.839L9.025 27.907 19.21 29.99m15.263-7.499v-6.949" stroke="#373A3A" stroke-width=".619" stroke-linecap="round" stroke-linejoin="round"/><path d="M44.893 28.16v8.701a3.181 3.181 0 01-.498 1.672c-1.6 2.604-6.553 3.968-11.064 3.044l-1.354-.277m-15.429-3.157l-7.523-1.54v-8.696" stroke="#373A3A" stroke-width=".619" stroke-linecap="round" stroke-linejoin="round"/><path d="M15.86 44.46c0-2.797.207-4.783.688-6.317.667-2.143 1.858-3.402 3.81-4.765" stroke="#373A3A" stroke-width=".619" stroke-linecap="round" stroke-linejoin="round"/><path d="M27.744 32.1c2.372 1.239 4.084 3.479 4.23 9.198v.35c.07.723-.326 1.421-1.215 1.935l-6.08 3.51c-3.019 1.745-8.814.054-8.823-2.585v-.05" stroke="#373A3A" stroke-width=".619" stroke-linecap="round" stroke-linejoin="round"/><path d="M27.744 32.1a4.445 4.445 0 00-5.07-6.053 4.447 4.447 0 00-3.481 4.337 4.45 4.45 0 008.551 1.716z" stroke="#373A3A" stroke-width=".619" stroke-linecap="round" stroke-linejoin="round"/></g><defs><clipPath id="clip0_56_590"><path fill="#fff" transform="translate(8.715 10.228)" d="M0 0h42v38.885H0z"/></clipPath></defs></svg>