<svg width="60" height="60" viewBox="0 0 60 60" fill="none" xmlns="http://www.w3.org/2000/svg"><g clip-path="url(#clip0_56_532)"><path d="M50.934 24.391v4.286c0 .411-.252.808-.764 1.105L25.402 44.076c-1.13.646-3.104.569-4.409-.183L5.404 34.888c-.715-.413-1.077-.939-1.077-1.44v-4.284c0 .502.367 1.03 1.077 1.438l15.598 9.007c1.305.754 3.278.834 4.408.183l24.76-14.3c.512-.289.764-.685.764-1.1z" fill="#969A9E"/><path d="M50.934 24.391c0 .416-.252.812-.764 1.107L25.402 39.793c-1.13.646-3.104.57-4.409-.184L5.404 30.603c-.715-.41-1.077-.937-1.077-1.44 0-.415.252-.809.765-1.104l24.753-14.294c1.13-.647 3.104-.573 4.409.18l15.6 9.008c.714.413 1.08.939 1.08 1.438zM34.45 20.07a.646.646 0 00.377-.543c0-.246-.18-.504-.53-.707-.646-.37-1.613-.41-2.17-.09l-7.78 4.49a.647.647 0 00-.375.55c0 .247.18.506.532.71.646.37 1.608.412 2.166.089l7.78-4.5zM21.908 35.197l6.52-3.765-2.014-1.163c-1.305-.754-3.196-.96-4.824-.623.144-.573-.166-1.174-.929-1.615-1.292-.74-3.362-.74-4.647 0-1.286.74-1.293 1.938 0 2.681a4.96 4.96 0 002.8.539c-.586.937-.216 2.029 1.076 2.782l2.018 1.163z" fill="#fff"/><path d="M34.827 19.526a.646.646 0 01-.377.543l-7.78 4.492c-.558.323-1.527.282-2.166-.088-.351-.215-.532-.463-.532-.71a.646.646 0 01.374-.544l7.782-4.49c.556-.321 1.527-.28 2.169.09.35.212.53.461.53.707z" fill="#5F646B"/><path d="M28.428 31.432l-6.52 3.764-2.016-1.163c-1.305-.753-1.664-1.845-1.076-2.782a4.536 4.536 0 001.848-.539c.52-.3.829-.676.928-1.066 1.628-.338 3.519-.131 4.824.623l2.012 1.163z" fill="#F6D84C"/><path d="M20.661 28.031c.763.43 1.077 1.042.929 1.615-.1.39-.407.767-.929 1.066-.57.31-1.2.494-1.848.539a4.967 4.967 0 01-2.8-.539c-1.292-.74-1.292-1.938 0-2.681 1.293-.743 3.365-.74 4.648 0zM5.077 17.99c-.024-.861.538-1.742 1.686-2.406 2.25-1.292 5.895-1.292 8.144 0l5.892 3.403-8.145 4.704-5.895-3.403c-1.103-.637-1.665-1.462-1.682-2.298zm7.79 1.12c.827-.478.827-1.253 0-1.723a3.322 3.322 0 00-2.996 0c-.827.478-.827 1.254 0 1.723a3.308 3.308 0 002.992 0h.004z" fill="#fff"/><path d="M12.863 17.378c.827.479.827 1.254 0 1.724a3.307 3.307 0 01-2.996 0c-.827-.479-.827-1.254 0-1.724a3.321 3.321 0 012.996 0z" fill="#373A3A"/><path d="M12.654 23.691l-2.227 1.292-3.662-2.117C5.641 22.22 5.08 21.36 5.08 20.514V17.99c.022.836.584 1.66 1.686 2.298l5.889 3.403z" fill="#969A9E"/><path d="M50.934 24.391c0 .416-.252.812-.764 1.107L25.402 39.793c-1.13.646-3.104.57-4.409-.184L5.404 30.603c-.715-.41-1.077-.937-1.077-1.44 0-.415.252-.809.765-1.104l24.753-14.294c1.13-.647 3.104-.573 4.409.18l15.6 9.008c.714.413 1.08.939 1.08 1.438zm-38.28-.7l-5.895-3.403c-1.103-.646-1.665-1.462-1.686-2.298-.024-.861.538-1.742 1.686-2.406 2.25-1.292 5.895-1.292 8.143 0l5.897 3.403" stroke="#373A3A" stroke-width=".646" stroke-linecap="round" stroke-linejoin="round"/><path d="M12.863 17.378a3.32 3.32 0 00-2.996 0c-.827.479-.827 1.254 0 1.724a3.307 3.307 0 002.996 0c.829-.47.829-1.245 0-1.724zm8.727 12.268c1.628-.338 3.519-.131 4.824.623l2.014 1.163-6.52 3.764-2.016-1.163c-1.305-.753-1.664-1.845-1.076-2.782" stroke="#373A3A" stroke-width=".646" stroke-linecap="round" stroke-linejoin="round"/><path d="M21.59 29.646c.144-.573-.166-1.174-.929-1.615-1.292-.74-3.362-.74-4.647 0-1.286.74-1.293 1.938 0 2.681a4.96 4.96 0 002.8.539 4.539 4.539 0 001.847-.539c.522-.299.83-.676.929-1.066zm12.86-9.577l-7.78 4.492c-.558.323-1.527.282-2.166-.088-.351-.215-.532-.463-.532-.71a.646.646 0 01.374-.544l7.782-4.49c.556-.321 1.527-.28 2.169.09.35.203.53.461.53.707a.646.646 0 01-.377.543zm-6.423 5.877l8.82-5.094m-6.944 6.178l8.82-5.094m-4.471 4.749l4.124-2.382m-27.949.672l-3.662-2.117c-1.124-.646-1.686-1.508-1.686-2.352v-2.57" stroke="#373A3A" stroke-width=".646" stroke-linecap="round" stroke-linejoin="round"/><path d="M50.934 24.391v4.286c0 .411-.252.808-.764 1.105L25.402 44.076c-1.13.646-3.104.569-4.409-.183L5.404 34.888c-.715-.413-1.077-.939-1.077-1.44v-4.284" stroke="#373A3A" stroke-width=".646" stroke-linecap="round" stroke-linejoin="round"/></g><defs><clipPath id="clip0_56_532"><path fill="#fff" transform="translate(4 13)" d="M0 0h52v34.863H0z"/></clipPath></defs></svg>