<svg width="60" height="60" viewBox="0 0 60 60" fill="none" xmlns="http://www.w3.org/2000/svg"><g clip-path="url(#clip0_56_763)"><path d="M42.029 30.884c-.93.488-1.848 1.555-2.344 2.836-.174.449-.28.883-.323 1.282a.766.766 0 01-.373.59l-.593.34-8.887 5.131v-16.51l17.438-10.069v16.512l-2.102 1.216a.254.254 0 01-.378-.187c-.11-.808-.552-1.36-1.261-1.425-.372-.032-.774.069-1.175.282l-.002.002z" fill="#969A9E"/><path d="M46.944 14.484L29.51 24.552l-14.231-8.216L32.713 6.27l14.231 8.215z" fill="#fff"/><path d="M43.543 31.87c.252.406.36 1.255-.092 2.42-.666 1.714-2.007 2.773-2.868 2.773-.03 0-.063 0-.09-.004a.757.757 0 01-.31-.093l-1.79-1.033.593-.342a.765.765 0 00.374-.589c.043-.4.148-.833.322-1.282.497-1.28 1.416-2.348 2.344-2.836l1.253.724c.103.06.19.146.262.262h.002zm-.98 2.417c.222-.563.168-.973.046-1.17a.347.347 0 00-.275-.175h-.045c-.417 0-1.066.516-1.388 1.345-.22.563-.168.973-.046 1.173a.346.346 0 00.278.172h.043c.416 0 1.067-.516 1.388-1.345z" fill="#373A3A"/><path d="M42.609 33.116c.122.196.176.606-.045 1.171-.32.832-.974 1.345-1.388 1.345h-.043a.34.34 0 01-.277-.172c-.123-.197-.175-.608.045-1.173.322-.831.973-1.345 1.388-1.345h.045c.12.013.21.067.275.174z" fill="#969A9E"/><path d="M29.51 24.552v16.511l-1.576-.908V27.332a1.48 1.48 0 00-.736-1.278L16.73 20.01a.94.94 0 00-.945 0l-.507.292v-3.966l14.231 8.216z" fill="#fff"/><path d="M22.944 41.719c-.93.487-1.848 1.555-2.345 2.838a5.275 5.275 0 00-.28.988 1.179 1.179 0 01-.557.806l-.578.344-1.262.747v-5.001l-.913.541c-.434.256-.97.26-1.405.009l-2.021-1.167-6.424-3.708-2.607-1.506c-.006-.026-.012-.054-.021-.08-.155-.498-.537-1.977.056-2.847.475-.696.855-1.345 1.061-1.706L16.46 38.22a.718.718 0 001.027-.353c.415-1.014 1.141-2.932 2.134-5.515a1.33 1.33 0 00-.574-1.628L8.538 24.655a2.59 2.59 0 01.999-1.042l5.736-3.313.507-.292a.941.941 0 01.946 0l10.467 6.044c.456.264.737.752.737 1.278v13.671a.898.898 0 01-.434.765l-1.562.926a.447.447 0 01-.65-.251c-.188-.574-.587-.952-1.167-1.004-.372-.032-.774.069-1.176.282h.003zm2.404-7.288v-4.712a.39.39 0 00-.587-.34l-2.043 1.18c-.529.305-.92.8-1.094 1.384l-1.663 5.556a.217.217 0 00.318.251l4.725-2.728a.679.679 0 00.341-.591h.003z" fill="#fff"/><path d="M25.348 29.72v4.711c0 .243-.13.47-.342.59l-4.724 2.73a.217.217 0 01-.318-.252l1.663-5.556a2.373 2.373 0 011.093-1.384l2.043-1.18a.39.39 0 01.587.34h-.002zm-.89 12.987c.252.404.359 1.253-.092 2.417-.666 1.715-2.007 2.774-2.868 2.774h-.09a.789.789 0 01-.31-.095l-1.904-1.098s-.008-.004-.012-.008l.578-.344c.294-.174.496-.468.556-.806.058-.313.148-.646.281-.988.497-1.283 1.416-2.35 2.344-2.838l1.253.724c.103.06.189.146.262.264l.002-.002zm-.977 2.415c.219-.563.165-.973.043-1.171a.347.347 0 00-.275-.174h-.043c-.42 0-1.068.513-1.39 1.345-.22.563-.168.975-.046 1.173a.345.345 0 00.278.172h.043c.416 0 1.067-.516 1.39-1.345z" fill="#373A3A"/><path d="M23.524 43.951c.122.196.176.606-.043 1.17-.323.832-.974 1.346-1.39 1.346h-.043a.34.34 0 01-.277-.172c-.123-.196-.175-.608.045-1.173.322-.831.973-1.345 1.39-1.345h.043c.12.013.21.067.275.174z" fill="#969A9E"/><path d="M19.05 30.725a1.33 1.33 0 01.574 1.628c-.992 2.583-1.719 4.5-2.133 5.516a.721.721 0 01-1.027.352L5.65 31.977c.106-.189.166-.3.166-.3l2.602-6.751a2.18 2.18 0 01.122-.268l10.508 6.067h.003z" fill="#373A3A"/><path d="M17.925 44.96v2.482l-1.128.668c-.434.258-.971.26-1.405.009l-10.19-5.883a1.227 1.227 0 01-.613-1.06v-2.3c.103.237.28.436.511.57l2.06 1.19 6.425 3.706 2.021 1.169a1.39 1.39 0 001.406-.009l.913-.541z" fill="#5F646B"/><path d="M17.925 42.44v2.52l-.913.542a1.39 1.39 0 01-1.406.009l-2.021-1.167v-2.52l2.021 1.167c.434.251.974.247 1.406-.009l.913-.541z" fill="#fff"/><path d="M7.16 38.114l6.425 3.71v2.518L7.16 40.636v-2.523z" fill="#F6D84C"/><path d="M7.16 38.114v2.52l-2.06-1.19a1.238 1.238 0 01-.511-.57V36.9c0-.1-.013-.196-.034-.29l2.606 1.506v-.002z" fill="#fff"/><path d="M46.944 14.484L29.51 24.552l-14.231-8.216m14.231 8.216v16.511" stroke="#969A9E" stroke-width=".537" stroke-linecap="round" stroke-linejoin="round"/><path d="M15.278 16.336L32.713 6.27l14.231 8.215" stroke="#373A3A" stroke-width=".537" stroke-linecap="round" stroke-linejoin="round"/><path d="M29.51 41.063l8.885-5.13.593-.342a.766.766 0 00.374-.589c.043-.4.149-.833.323-1.282.496-1.28 1.415-2.348 2.344-2.836.4-.213.803-.314 1.175-.282.711.063 1.151.615 1.261 1.425a.254.254 0 00.378.187l2.101-1.216V14.484m-31.666 1.852v3.966m12.656 19.852l1.575.91m-6.565.655c-.93.487-1.848 1.555-2.345 2.838a5.275 5.275 0 00-.28.988 1.179 1.179 0 01-.557.806l-.578.344-1.262.747-1.128.669c-.434.257-.97.26-1.405.008L5.2 42.236a1.227 1.227 0 01-.612-1.06V36.9c0-.1-.013-.196-.035-.29-.006-.026-.012-.054-.021-.08-.155-.498-.537-1.977.056-2.847.475-.696.855-1.345 1.061-1.706l.166-.3 2.601-6.75a2.591 2.591 0 011.122-1.31l5.736-3.314.507-.293a.941.941 0 01.946 0l10.467 6.044c.456.264.737.752.737 1.278v13.671a.898.898 0 01-.434.765l-1.562.926a.447.447 0 01-.65-.251c-.188-.574-.587-.952-1.167-1.004-.372-.032-.774.07-1.176.282l.003-.002z" stroke="#373A3A" stroke-width=".537" stroke-linecap="round" stroke-linejoin="round"/><path d="M13.585 44.342L7.16 40.636l-2.06-1.19a1.238 1.238 0 01-.512-.57m13.337 6.084l-.913.542a1.39 1.39 0 01-1.406.009l-2.021-1.167" stroke="#373A3A" stroke-width=".537" stroke-linecap="round" stroke-linejoin="round"/><path d="M22.09 46.469h-.042a.34.34 0 01-.277-.172c-.123-.195-.175-.608.045-1.173.322-.832.973-1.345 1.39-1.345h.043c.12.013.21.067.275.174.122.196.176.606-.043 1.171-.323.831-.974 1.345-1.39 1.345zm19.086-10.837h-.043a.34.34 0 01-.277-.172c-.123-.197-.175-.608.045-1.173.322-.831.973-1.345 1.388-1.345h.045c.12.013.21.067.275.174.122.196.176.606-.045 1.171-.32.832-.974 1.345-1.388 1.345z" stroke="#C2C7CC" stroke-width=".537" stroke-linecap="round" stroke-linejoin="round"/><path d="M42.026 30.884l1.253.724c.103.06.19.146.262.262.252.406.359 1.255-.092 2.42-.666 1.714-2.007 2.773-2.868 2.773-.03 0-.063 0-.09-.004a.757.757 0 01-.31-.093l-1.79-1.033m-15.45 5.786l1.253.724c.103.06.189.146.262.264.252.404.359 1.253-.092 2.417-.666 1.715-2.007 2.774-2.869 2.774h-.09a.791.791 0 01-.31-.095l-1.903-1.098-.013-.008M5.65 31.977l10.812 6.242a.718.718 0 001.026-.352c.415-1.015 1.141-2.933 2.134-5.516a1.33 1.33 0 00-.574-1.628L8.54 24.655m9.385 22.787v-5.001l-.913.541c-.434.256-.972.26-1.406.009l-2.021-1.167-6.424-3.708-2.606-1.506m9.03 7.734v-2.52M7.16 40.636v-2.523m18.188-8.393v4.711c0 .243-.13.47-.342.59l-4.724 2.73a.217.217 0 01-.318-.252l1.663-5.556a2.373 2.373 0 011.093-1.384l2.043-1.18a.39.39 0 01.587.34h-.002zm-.944 7.412l.985-.567" stroke="#373A3A" stroke-width=".537" stroke-linecap="round" stroke-linejoin="round"/></g><defs><clipPath id="clip0_56_763"><path fill="#fff" transform="translate(4 6)" d="M0 0h52v47.482H0z"/></clipPath></defs></svg>