<svg width="60" height="60" viewBox="0 0 60 60" fill="none" xmlns="http://www.w3.org/2000/svg"><path d="M32.985 36.269c4.074 3.101 10.792 3.101 11.903 14.803-2.654 4.07-6.565 6.081-11.608 5.929-4.255-.13-8.873-1.74-12.562-3.36-.282-1.68-1.013-9.013-1.013-9.073 1.119-1.426 2.528-3.127 3.262-3.742a15.937 15.937 0 011.737 4.313c2.254-1.695 5.872-4.96 8.281-8.87z" fill="#fff"/><path d="M31.941 9.431c1.564 1.132 2.43 2.631 2.43 4.963 0 6.017-4.2 8.121-4.513 13.746a19.414 19.414 0 01-2.768-3.218c.695-1.414 1.217-3.102 1.217-4.288 0-1.272-.775-2.942-1.654-2.942-1.034 0-1.81 1.61-2.303 3.267a5.992 5.992 0 00-.45-.625c-1.342-1.577-2.326-2.422-2.326-4.004.019-.96.268-1.901.726-2.745a3.073 3.073 0 00-1.846-.546c-1.708 0-3.169.846-4.745.846-3.185 0-5.906-.313-7.726-1.551C6.481 11.297 5.6 9.625 5.6 6.96c0-3.073 4.603-3.864 7.736-3.864l3.745-.016C19.1 2.525 21.475 2 23.2 2c5.635 0 8.804 3.68 8.804 6.72 0 .239-.02.476-.062.711z" fill="#373A3A"/><path d="M22.967 40.818a16.248 16.248 0 00-1.7-2.432c.216.028.434.042.653.04 3.603 0 6.408-2.545 8.649-5.257a7.178 7.178 0 002.416 3.102c-2.409 3.91-6.027 7.175-8.27 8.863a15.94 15.94 0 00-1.748-4.316z" fill="#fff"/><path d="M17.606 35.99c-.207.015-.421.02-.644.02h-.038a8.243 8.243 0 01-3.045-.592 9.431 9.431 0 01-4.808-4.394 9.762 9.762 0 01-1.153-4.546c0-1.629.313-3.304.313-4.912 0-1.884-.775-2.46-.775-4.804a24.47 24.47 0 01.54-4.423c1.81 1.24 4.541 1.55 7.726 1.55 1.577 0 3.037-.844 4.745-.844.658-.02 1.305.17 1.846.545a6.002 6.002 0 00-.726 2.745c0 1.582.977 2.427 2.326 4.004.163.198.313.407.45.625.486-1.656 1.261-3.267 2.303-3.267.881 0 1.654 1.67 1.654 2.942 0 1.189-.517 2.874-1.218 4.288a19.445 19.445 0 002.769 3.218 11.06 11.06 0 00-.018.667c0 1.809.258 3.23.729 4.363-2.241 2.711-5.046 5.257-8.649 5.257a4.88 4.88 0 01-.654-.041 4.631 4.631 0 01-2.417-1.034 6.48 6.48 0 01-1.256-1.367z" fill="#DAE0E5"/><path d="M22.967 40.818c-.734.615-2.143 2.326-3.262 3.742a7.046 7.046 0 01-3.257-1.444c-.064-1.683-.093-3.36-.093-5.048v-.218c.825-.209 1.657-.38 2.492-.517a4.612 4.612 0 002.416 1.034 16.243 16.243 0 011.704 2.45z" fill="#F6D84C"/><path d="M19.705 44.563c0 .06.731 7.392 1.013 9.072a75.808 75.808 0 01-4.22-2.034 49.505 49.505 0 01-3.503-1.99c.817-2.14 2.13-4.254 3.469-6.04 0-.15 0-.305-.016-.455a7.046 7.046 0 003.257 1.444v.003z" fill="#F6D84C"/><path d="M18.862 37.341a23.16 23.16 0 00-2.491.517 24.667 24.667 0 00-3.852 1.337 25.616 25.616 0 011.375-3.777c.969.388 2.002.59 3.045.592h.039c.222 0 .437 0 .644-.02.347.507.765.962 1.24 1.351z" fill="#fff"/><path d="M16.448 43.116c0 .15 0 .305.015.455-1.338 1.786-2.651 3.9-3.468 6.04-3.72-2.326-7.553-5.523-8.995-9.59.45-3.988 1.77-6.913 5.069-9.01a9.431 9.431 0 004.807 4.394 25.627 25.627 0 00-1.375 3.777 24.67 24.67 0 013.851-1.337v.212a184.2 184.2 0 00.096 5.059z" fill="#fff"/><path d="M7.99 12.331a24.557 24.557 0 00-.54 4.423c0 2.344.776 2.92.776 4.805 0 1.6-.313 3.275-.313 4.91a9.794 9.794 0 001.153 4.547 9.452 9.452 0 004.808 4.395 8.295 8.295 0 003.045.591h.038c.223 0 .437 0 .644-.02 3.264-.217 4.89-1.97 6.245-3.161" stroke="#373A3A" stroke-width=".775" stroke-linecap="round" stroke-linejoin="round"/><path d="M9.069 31.011c-3.299 2.096-4.62 5.022-5.07 9.01 1.443 4.066 5.279 7.264 8.996 9.59a49.527 49.527 0 003.502 1.99 72.418 72.418 0 004.221 2.035c3.686 1.628 8.307 3.236 12.562 3.36 5.043.152 8.953-1.859 11.608-5.93-1.111-11.69-7.83-11.698-11.89-14.803a7.213 7.213 0 01-2.417-3.101c-.462-1.132-.729-2.544-.729-4.363 0-.23 0-.453.019-.667.297-5.617 4.5-7.72 4.5-13.738 0-2.326-.866-3.83-2.43-4.963.04-.231.062-.465.062-.7 0-3.05-3.169-6.72-8.804-6.72-1.724 0-4.099.516-6.118 1.08l-3.745.015c-3.133 0-7.736.791-7.736 3.877 0 2.665.881 4.338 2.39 5.372 1.81 1.24 4.542 1.55 7.727 1.55 1.576 0 3.037-.845 4.745-.845.658-.02 1.305.17 1.846.545a6.002 6.002 0 00-.727 2.745c0 1.582.977 2.428 2.327 4.004.163.199.313.408.45.626.485-1.657 1.26-3.267 2.302-3.267.882 0 1.655 1.67 1.655 2.941 0 1.19-.517 2.874-1.218 4.288.803 1.17 1.73 2.25 2.768 3.218" stroke="#373A3A" stroke-width=".775" stroke-linecap="round" stroke-linejoin="round"/><path d="M17.606 35.99c.354.507.776.962 1.256 1.351.69.57 1.529.929 2.417 1.034.217.029.435.042.654.042 3.603 0 6.407-2.546 8.648-5.258M13.879 35.41a25.6 25.6 0 00-1.375 3.777 24.37 24.37 0 013.851-1.337 25.174 25.174 0 012.492-.517" stroke="#373A3A" stroke-width=".775" stroke-linecap="round" stroke-linejoin="round"/><path d="M21.266 38.386a16.581 16.581 0 011.7 2.432 15.98 15.98 0 011.738 4.314c2.254-1.688 5.872-4.953 8.271-8.863" stroke="#373A3A" stroke-width=".775" stroke-linecap="round" stroke-linejoin="round"/><path d="M20.718 53.636c-.282-1.68-1.013-9.014-1.013-9.073 1.119-1.427 2.528-3.128 3.262-3.743m-9.972 8.791c.817-2.14 2.13-4.254 3.469-6.04 0-.15 0-.305-.016-.455-.049-1.683-.093-3.36-.093-5.048v-.218m.09 5.263a7.046 7.046 0 003.257 1.445m-8.398-23.245c.084.447.126.9.124 1.355 0 2.73-1.292 3.486-1.292 4.104 0 .38.349.81.776 1.15.35.305.77.518 1.222.62M8.092 18.351c.894.191 1.729.982 2.326 1.642m4.934.152c.83.33 2.011.677 2.326 1.634m-8.25.118c.037.215.055.434.052.652a6.808 6.808 0 01-.09 1.062m6.464.334c0 .757.033 1.496.108 2.25" stroke="#373A3A" stroke-width=".775" stroke-linecap="round" stroke-linejoin="round"/></svg>