<svg width="60" height="60" viewBox="0 0 60 60" fill="none" xmlns="http://www.w3.org/2000/svg"><path d="M54.426 36.291L27.293 51.955 7.243 40.377l27.135-15.664 20.048 11.578z" fill="#DAE0E5"/><path d="M7.243 40.377l27.135-15.664 20.048 11.578-27.133 15.664-20.05-11.578zm36.142-3.281l-14.69 8.485m7.255-12.778l-2.342 1.353m-3.611 2.084l-8.738 5.046m11.718-10.197l-14.691 8.48m22.622-3.903l-1.14.659m-4.391 2.53l-9.16 5.294m12.213-9.913l-10.288 5.938m-2.954 1.708l-1.453.835" stroke="#3A3A3A" stroke-width=".627" stroke-linecap="round" stroke-linejoin="round"/><path d="M34.018 31.4c.899.435 1.73.772 2.3.874.5.088.997.145 1.464.21.821.102 1.562.209 2.114.547a1.015 1.015 0 01-.128 1.817 6.451 6.451 0 01-1.796.47 7.866 7.866 0 01-2.432-.11l.222.34c-2.413 1.255-4.847 1.017-7.38.18-.97.789-2.333 1.157-3.638 1.314a7.051 7.051 0 01-5.896-2.17c-.907-.952-1.03-1.52-1.844-2.443a11.456 11.456 0 00-1.255-1.2 44.032 44.032 0 00-5.332-3.875c-.067-.373-.115-.75-.144-1.129-.418-5.944 2.685-9.92 5.817-11.188 2.51 1.543 4.54 2.718 6.273 3.642 3.736 2.012 6.076 2.9 9.03 4.017l1.966 6.5c-1.846-.907-4.447-.692-4.447-.692s2.783 1.776 5.106 2.896z" fill="#fff"/><path d="M37.989 35.319v3.628l-2.432-3.743c.8.163 1.62.2 2.432.11v.005z" fill="#373A3A"/><path d="M36.606 25.433a2.137 2.137 0 011.255 2.62c-.339 1.09-.66 2.35-.527 2.877l-1.794-5.928 1.066.43z" fill="#fff"/><path d="M37.334 30.96l.464 1.526c-.472-.063-.97-.12-1.463-.21-.577-.102-1.407-.439-2.3-.874l-.663-2.197L26.624 6.96c.182.584 1.046.837 1.903.556.857-.28 1.399-.93 1.255-1.505l7.552 24.947z" fill="#F6D84C"/><path d="M29.782 6.012c.144.575-.404 1.242-1.255 1.505-.851.264-1.72.028-1.903-.556-.18-.579.379-1.267 1.255-1.537.75-.236 1.716-.092 1.905.565l-.002.023z" fill="#fff"/><path d="M20.43 15.3c1.226 1.033 1.862 2.068 1.925 3.383-1.726-.928-3.747-2.1-6.265-3.646 1.591-.64 3.193-.586 4.34.263z" fill="#373A3A"/><path d="M10.432 27.356c.295 1.61.987 3.057 2.248 4.128-1.863-1.1-5.562-3.346-5.646-3.392-7.042-4.6.937-20.073 8.324-15.974 2.233 1.22 3.906 2.201 5.073 3.182-1.148-.849-2.75-.903-4.34-.264-3.137 1.255-6.234 5.24-5.803 11.187.028.38.076.758.144 1.133z" fill="#5F646B"/><path d="M17.02 32.431c-1.097.418-2.345-.017-3.872-.669l-.468-.278c-1.255-1.07-1.953-2.51-2.248-4.128a44.026 44.026 0 015.332 3.875c.449.368.869.769 1.257 1.2z" fill="#373A3A"/><path d="M7.277 28.24c1.741 1.065 5.714 3.428 5.871 3.524 1.527.652 2.775 1.092 3.872.67m-.93-17.397c2.51 1.543 4.54 2.718 6.273 3.642 3.736 2.012 6.076 2.9 9.03 4.017" stroke="#3A3A3A" stroke-width=".627" stroke-linecap="round" stroke-linejoin="round"/><path d="M20.43 15.3c-1.147-.849-2.749-.903-4.34-.264-3.136 1.255-6.233 5.24-5.802 11.187.028.379.076.756.144 1.13.295 1.61.987 3.056 2.248 4.127" stroke="#3A3A3A" stroke-width=".627" stroke-linecap="round" stroke-linejoin="round"/><path d="M10.43 27.356a44.033 44.033 0 015.332 3.875c.448.368.867.769 1.254 1.2.812.922.937 1.491 1.845 2.442a7.05 7.05 0 005.896 2.17c1.305-.156 2.668-.524 3.638-1.312a.037.037 0 00.017-.01" stroke="#3A3A3A" stroke-width=".627" stroke-linecap="round" stroke-linejoin="round"/><path d="M23.916 33.855a43.754 43.754 0 004.483 1.882c2.533.836 4.966 1.077 7.38-.18m-.222-.349c.8.162 1.62.2 2.432.11a6.522 6.522 0 001.796-.47 1.013 1.013 0 00.127-1.817c-.552-.33-1.292-.443-2.114-.547-.474-.061-.97-.12-1.463-.21-.578-.102-1.408-.439-2.3-.874-2.323-1.12-5.096-2.881-5.113-2.891-.017-.01 2.601-.21 4.448.692" stroke="#3A3A3A" stroke-width=".627" stroke-linecap="round" stroke-linejoin="round"/><path d="M37.989 35.325v3.628l-2.432-3.743m-8.347-3.356c3.362 1.6 6.007 2.91 8.353 3.346M26.622 6.957l6.731 22.24c.682 2.258.665 2.18.663 2.197M29.782 6.012c.144.575-.404 1.242-1.255 1.505-.851.264-1.72.028-1.903-.556m-.002-.004c-.18-.58.379-1.267 1.255-1.537.75-.236 1.716-.092 1.905.565m7.546 24.945L29.775 5.985m8.023 26.501l-.464-1.527m-1.8-5.957l1.072.43a2.137 2.137 0 011.255 2.62c-.339 1.09-.66 2.351-.527 2.878v.03M22.355 18.683c-.063-1.315-.699-2.35-1.924-3.383-1.167-.98-2.84-1.961-5.067-3.19C7.973 8.014-.002 23.481 7.04 28.092c.078.052.155.1.237.148" stroke="#3A3A3A" stroke-width=".627" stroke-linecap="round" stroke-linejoin="round"/></svg>