<svg width="60" height="60" viewBox="0 0 60 60" fill="none" xmlns="http://www.w3.org/2000/svg"><g clip-path="url(#clip0_56_700)"><path d="M17.693 22.913c.739 1.137 5.53 8.524 6.228 9.606v3.37l-1.283-.736a.068.068 0 01-.022-.011l-.097-.056-.044-.026-.038-.022a.219.219 0 00-.046-.024l-.476-.288h-.013a11511.044 11511.044 0 01-12.928-7.465c-.09-.048-3.381-1.95-4.604-2.654v-3.384l9.77-3.788c1.262 1.946 3.453 5.328 3.553 5.478zm-11.574.069l15.206 8.778-7.606-11.722-7.6 2.944zm33.147 12.401v2.245a.826.826 0 01-.27.595 1.81 1.81 0 01-.449.312c-.112.055-.23.1-.35.137-.079.026-.16.048-.247.068a3.2 3.2 0 01-2.225-.265c-.402-.235-.608-.54-.608-.847v-8.093l4.15-2.355v8.203z" fill="#fff"/><path d="M22.433 35.031l-.053-.029a.219.219 0 01.046.025l.007.004zm-10.028 3.338zm16.831 3.638zM4.367 21.221l19.559-11.105 9.776-3.784c-.173.1-19.512 11.072-19.561 11.103L4.367 21.22z" fill="#fff"/><path d="M21.325 31.76L6.119 22.982l7.6-2.949 7.606 11.727z" fill="#FADA7A"/><path d="M32.879 31.696v9.524c0 .307-.204.612-.608.847a3.189 3.189 0 01-2.226.265 2.74 2.74 0 01-.816-.325 1.468 1.468 0 01-.234-.19.85.85 0 01-.272-.597v-8.06l4.15-2.353.006.889zM8.963 27.255c.006.005.013.01.02.013l3.864 2.232v8.128a.84.84 0 01-.272.595 1.713 1.713 0 01-.172.146c-.043.03-.087.057-.133.086a1.22 1.22 0 01-.146.08 2.927 2.927 0 01-.595.206 3.19 3.19 0 01-2.22-.266c-.405-.235-.607-.54-.607-.847V27.104c.084.049.164.102.261.15zm11.247-.465c.062.098.124.193.186.286a3.583 3.583 0 01-.186-.286z" fill="#fff"/><path d="M5.548 38.513l.067.037.56.323.048.029 17.674 10.205L43.46 37.81v2.433L23.892 51.535 4.332 40.242V37.81l.524.303.022.014.12.068.55.319z" fill="#5F646B"/><path d="M28.31 33.399c.083-.047.163-.09.245-.14l-.246.14z" fill="#fff"/><path d="M23.921 32.519l-9.78-15.084c.049-.031 19.388-11.004 19.56-11.103l9.78 15.082c-3.31 1.882-19.482 11.06-19.56 11.105z" fill="#DAE0E5"/><path d="M19.303 41.22v-7.996l2.588 1.495v10.256c0 .305.203.613.608.845 1.307.754 3.539.221 3.539-.845V34.686l2.69-1.526v8.06a.847.847 0 00.271.597c.072.07.15.134.235.19a2.765 2.765 0 00.816.325c.75.184 1.54.09 2.225-.265.405-.235.608-.54.608-.847v-9.524l2.234 1.287v4.645c0 .307.206.612.608.847a3.2 3.2 0 002.225.259c.086-.02.168-.042.248-.069a2.344 2.344 0 00.495-.217c.089-.052.172-.112.25-.179.018-.017.038-.035.053-.053a.827.827 0 00.27-.595v-2.238l4.19 2.417-19.564 11.296L6.212 38.89l-.049-.029-.137-.077-.077-.051-.08-.047-.984-.57-.022-.014-.531-.303 4.366-2.521v2.349c0 .307.201.612.606.847.683.35 1.47.442 2.216.259a2.94 2.94 0 00.595-.206c.05-.023.1-.05.146-.08.046-.026.09-.055.133-.086.042-.033.084-.064.12-.095a.381.381 0 00.052-.05.839.839 0 00.281-.59v-4.741l2.307-1.327v9.665c0 .308.203.613.608.847a3.234 3.234 0 002.933 0c.405-.24.608-.544.608-.851z" fill="#DAE0E5"/><path d="M24.7 35.447l-.779.442v-3.37c.078-.045 16.25-9.223 19.56-11.105v3.372L25.048 35.25l-.035.022-.064.036-.153.086-.095.053z" fill="#C2C7CC"/><path d="M12.27 38.455zm3.32-7.374l3.713 2.143v7.996c0 .307-.203.612-.608.847a3.234 3.234 0 01-2.933 0c-.405-.235-.608-.54-.608-.847V30.825c.146.088.292.168.436.256zm7.048 4.072l.062.033c.443.252 1.172.677 1.221.703l1.09-.617.036-.022.993-.564v10.29c0 1.059-2.234 1.598-3.539.844-.405-.221-.608-.54-.608-.845V34.72h.013l.051.031.153.087.026.017.301.173.035.02.045.026.097.056a.07.07 0 00.022.01l.002.014z" fill="#fff"/><path d="M39.266 35.383l4.19 2.417m-10.577-6.104l2.238 1.292m-5.881 9.019c.071.044.145.084.221.12m-1.147-8.728l.245-.14m-6.122 1.772l.037.022m-9.623-2.167l2.307-1.332m-2.749 6.815c.042-.031.082-.062.12-.095m-.255.181a1.46 1.46 0 00.133-.086M4.332 37.8l4.366-2.521m-1.601 4.118l-.222-.124m.664.379l-.18-.104" stroke="#3A3A3A" stroke-width=".664" stroke-linecap="round" stroke-linejoin="round"/><path d="M43.455 37.8v2.433L23.892 51.535 4.332 40.242v-2.433l.524.303.022.013.12.069 1.172.677.049.029 17.674 10.204L43.454 37.8zm-18.408-2.55l.102-.057m-2.767-.188a.221.221 0 01.046.024" stroke="#3A3A3A" stroke-width=".664" stroke-linecap="round" stroke-linejoin="round"/><path d="M26.04 34.686v10.29c0 1.059-2.234 1.598-3.539.844-.405-.221-.608-.54-.608-.845V34.72m-2.59-1.496v7.996c0 .307-.203.612-.608.847a3.234 3.234 0 01-2.933 0c-.405-.235-.608-.54-.608-.847V30.825M9.959 27.83l.22.137m2.668 1.533v8.128a.84.84 0 01-.272.595.386.386 0 01-.053.05c-.035.032-.078.063-.12.096a1.3 1.3 0 01-.132.086 1.22 1.22 0 01-.146.08 2.927 2.927 0 01-.595.206 3.19 3.19 0 01-2.22-.266c-.405-.235-.607-.54-.607-.847V27.104m24.177 3.703V41.22c0 .307-.204.612-.608.847a3.189 3.189 0 01-2.226.265 2.74 2.74 0 01-.816-.325 1.468 1.468 0 01-.234-.19.85.85 0 01-.272-.597v-8.06m10.543-5.98v10.448a.826.826 0 01-.27.595 1.81 1.81 0 01-.449.312c-.112.055-.23.1-.35.137-.079.026-.16.048-.247.068a3.2 3.2 0 01-2.225-.265c-.402-.235-.608-.54-.608-.847v-8.093m-13.56-.661l.164.256m-1.511-2.34c.062.098.124.193.186.286" stroke="#3A3A3A" stroke-width=".664" stroke-linecap="round" stroke-linejoin="round"/><path d="M23.921 35.89l-1.283-.737a.07.07 0 01-.022-.011l-.097-.056-.044-.026-.036-.02-.053-.029-.47-.285h-.014a11509.974 11509.974 0 01-12.928-7.465c-.09-.048-.177-.101-.265-.15m-.011-.007l-4.34-2.508v-3.373l19.568-11.107 9.776-3.784M14.14 17.435L4.368 21.22m15.238-6.888l-.221.13" stroke="#3A3A3A" stroke-width=".664" stroke-linecap="round" stroke-linejoin="round"/><path d="M23.921 32.519l-9.78-15.084c.049-.031 19.388-11.004 19.56-11.103l9.78 15.082" stroke="#3A3A3A" stroke-width=".664" stroke-linecap="round" stroke-linejoin="round"/><path d="M43.482 21.414v3.372L25.047 35.25l-.035.022-.064.036-.153.086-.095.053-.779.442v-3.37c.078-.045 16.25-9.223 19.56-11.105zM21.325 31.76l-7.606-11.722-7.6 2.944 15.206 8.778z" stroke="#3A3A3A" stroke-width=".664" stroke-linecap="round" stroke-linejoin="round"/></g><defs><clipPath id="clip0_56_700"><path fill="#fff" transform="translate(4 6)" d="M0 0h52v47.972H0z"/></clipPath></defs></svg>